<svg width="320" height="320" viewBox="0 0 320 320" fill="none" xmlns="http://www.w3.org/2000/svg" role="img" aria-labelledby="title desc">
  <title id="title">krcbranda ikon logo</title>
  <desc id="desc">Cadir ve tente kanopisini temsil eden krcbranda ikon logosu.</desc>
  <defs>
    <linearGradient id="canopy" x1="55" y1="58" x2="256" y2="238" gradientUnits="userSpaceOnUse">
      <stop stop-color="#0B6F78"/>
      <stop offset="1" stop-color="#083B4C"/>
    </linearGradient>
    <linearGradient id="sun" x1="188" y1="56" x2="279" y2="137" gradientUnits="userSpaceOnUse">
      <stop stop-color="#F5B642"/>
      <stop offset="1" stop-color="#E1712B"/>
    </linearGradient>
  </defs>
  <rect x="20" y="20" width="280" height="280" rx="44" fill="#F8FAFC"/>
  <path d="M52 185C75.9 116.4 127.3 71.9 203.8 50.7C235.2 69.6 260.7 96.4 279.9 131.1C224.7 125 176.4 138.2 135.1 170.7C108.6 191.5 80.9 196.2 52 185Z" fill="url(#canopy)"/>
  <path d="M203.9 50.7C234.6 69.5 260 96 279 130.2C248.8 126.8 220.7 129.1 194.6 137.2C205.8 109.8 208.9 80.9 203.9 50.7Z" fill="url(#sun)"/>
  <path d="M69 176.2C100 161.9 130 158.6 158.7 166.3C141.8 177.1 126 188.4 111.6 200.4C95.4 213.9 81.2 219.7 69 218V176.2Z" fill="#0A4D5C"/>
  <path d="M164.7 138.7C147.5 124.6 128.7 116.1 108.1 113.3C132.2 87.6 164.1 66.6 203.8 50.7C207.7 76.8 205 101.8 196 125.8C185.1 129.2 174.7 133.5 164.7 138.7Z" fill="#11818A"/>
  <path d="M100 229H230" stroke="#0A4D5C" stroke-width="16" stroke-linecap="round"/>
  <path d="M165 152V229" stroke="#0A4D5C" stroke-width="16" stroke-linecap="round"/>
  <path d="M75 177C97.4 110 145.8 67.8 203.8 50.7C234.4 69.1 259.6 95.2 278.8 130" stroke="white" stroke-width="8" stroke-linecap="round" stroke-linejoin="round"/>
  <path d="M97 209C114.3 204.6 129.9 196.6 144.1 185C182.5 153.8 227.4 141.4 278.5 148" stroke="white" stroke-width="8" stroke-linecap="round"/>
  <path d="M89 270H235" stroke="#E1712B" stroke-width="10" stroke-linecap="round"/>
</svg>
