<svg width="920" height="260" viewBox="0 0 920 260" fill="none" xmlns="http://www.w3.org/2000/svg" role="img" aria-labelledby="title desc">
  <title id="title">krcbranda logo</title>
  <desc id="desc">KRC Branda icin cadir, tente ve gazebo uretimini temsil eden kanopi formlu logo.</desc>
  <defs>
    <linearGradient id="canopy" x1="70" y1="45" x2="250" y2="205" gradientUnits="userSpaceOnUse">
      <stop stop-color="#0B6F78"/>
      <stop offset="1" stop-color="#083B4C"/>
    </linearGradient>
    <linearGradient id="sun" x1="187" y1="45" x2="268" y2="118" gradientUnits="userSpaceOnUse">
      <stop stop-color="#F5B642"/>
      <stop offset="1" stop-color="#E1712B"/>
    </linearGradient>
    <filter id="softShadow" x="36" y="30" width="256" height="197" filterUnits="userSpaceOnUse" color-interpolation-filters="sRGB">
      <feDropShadow dx="0" dy="8" stdDeviation="9" flood-color="#093746" flood-opacity="0.14"/>
    </filter>
  </defs>

  <g filter="url(#softShadow)">
    <path d="M62 166C83.7 103.7 130.4 63.3 199.9 44C228.4 61.2 251.6 85.5 269 117C218.8 111.5 174.9 123.5 137.4 153C113.3 171.9 88.1 176.2 62 166Z" fill="url(#canopy)"/>
    <path d="M200 44C227.9 61 250.9 85.1 268.2 116.2C240.8 113.1 215.2 115.2 191.5 122.5C201.7 97.7 204.5 71.5 200 44Z" fill="url(#sun)"/>
    <path d="M77 158C105.2 145 132.4 142 158.5 149C143.1 158.8 128.8 169.1 115.7 180C101 192.2 88.1 197.5 77 196V158Z" fill="#0A4D5C"/>
    <path d="M164 124C148.4 111.2 131.3 103.5 112.6 101C134.4 77.6 163.5 58.6 199.9 44C203.4 67.6 201 90.3 192.8 112C182.9 115.1 173.3 119.1 164 124Z" fill="#11818A"/>
    <path d="M105 201H225" stroke="#0A4D5C" stroke-width="14" stroke-linecap="round"/>
    <path d="M165 136V201" stroke="#0A4D5C" stroke-width="14" stroke-linecap="round"/>
    <path d="M83 159C103.4 98.1 147.4 59.7 200 44C227.7 60.7 250.6 84.4 268 116" stroke="#F8FAFC" stroke-width="7" stroke-linecap="round" stroke-linejoin="round"/>
    <path d="M103 188C118.7 184 132.9 176.7 145.8 166.2C180.7 137.8 221.5 126.5 268 132.5" stroke="#F8FAFC" stroke-width="7" stroke-linecap="round"/>
  </g>

  <text x="346" y="166" fill="#16323C" font-family="Inter, Montserrat, Arial, sans-serif" font-size="92" font-weight="800" letter-spacing="0">krcbranda</text>
  <path d="M350 210H837" stroke="#E1712B" stroke-width="8" stroke-linecap="round"/>
  <path d="M350 221H574" stroke="#0B6F78" stroke-width="8" stroke-linecap="round"/>
</svg>
